<svg width="28" height="28" viewBox="0 0 28 28" fill="none" xmlns="http://www.w3.org/2000/svg">
<path d="M10.2629 0.666672L9.41658 4.46615C8.93522 4.69779 8.47506 4.96458 8.03377 5.26563L4.32023 4.09636L0.583252 10.5703L3.39836 13.1484C3.28837 13.9648 3.33819 14.3672 3.39836 14.8516L0.583252 17.4297L4.32023 23.9037L8.03377 22.7344C8.47506 23.0354 8.93522 23.3022 9.41658 23.5339L10.2629 27.3333H17.7369L18.5833 23.5339C19.0646 23.3022 19.5248 23.0354 19.9661 22.7344L23.6796 23.9037L27.4166 17.4297L24.6015 14.8516C24.6245 14.5682 24.6663 14.2845 24.6666 14C24.6677 13.7069 24.6215 13.4108 24.6015 13.1484L27.4166 10.5703L23.6796 4.09636L19.9661 5.26563C19.5248 4.96458 19.0646 4.69779 18.5833 4.46615L17.7369 0.666672H10.2629ZM12.4036 3.33334H15.5963L16.2551 6.29167L16.9166 6.55209C17.6648 6.84512 18.3643 7.24846 18.9921 7.75001L19.5494 8.19271L22.44 7.28386L24.0364 10.0495L21.802 12.099L21.9088 12.8021C22.0344 13.5797 22.01 14.4746 21.9088 15.1979L21.802 15.901L24.0364 17.9505L22.44 20.7162L19.5494 19.8073L18.9921 20.25C18.3643 20.7516 17.6648 21.1549 16.9166 21.4479L16.2551 21.7083L15.5963 24.6667H12.4036L11.7447 21.7083L11.0833 21.4479C10.335 21.1549 9.63557 20.7516 9.00773 20.25L8.45044 19.8073L5.55981 20.7162L3.96346 17.9505L6.19783 15.901L6.09106 15.1979C5.96083 14.4046 5.98083 13.4967 6.09106 12.8021L6.19783 12.099L3.96346 10.0495L5.55981 7.28386L8.45044 8.19271L9.00773 7.75001C9.63557 7.24846 10.335 6.84512 11.0833 6.55209L11.7447 6.29167L12.4036 3.33334ZM13.9999 8.66667C11.0702 8.66667 8.66658 11.0703 8.66658 14C8.66658 16.9297 11.0702 19.3333 13.9999 19.3333C16.9296 19.3333 19.3333 16.9297 19.3333 14C19.3333 11.0703 16.9296 8.66667 13.9999 8.66667ZM13.9999 11.3333C15.4885 11.3333 16.6666 12.5115 16.6666 14C16.6666 15.4886 15.4885 16.6667 13.9999 16.6667C12.5114 16.6667 11.3333 15.4886 11.3333 14C11.3333 12.5115 12.5114 11.3333 13.9999 11.3333Z" fill="#A098AE"/>
</svg>
